<?xml version="1.0" encoding="utf-8"?>
<!-- Svg Vector Icons : http://www.onlinewebfonts.com/icon -->
<!DOCTYPE svg PUBLIC "-//W3C//DTD SVG 1.1//EN" "http://www.w3.org/Graphics/SVG/1.1/DTD/svg11.dtd">
<svg version="1.1" xmlns="http://www.w3.org/2000/svg" xmlns:xlink="http://www.w3.org/1999/xlink" x="0px" y="0px" viewBox="0 0 1000 1000" enable-background="new 0 0 1000 1000" xml:space="preserve">
<metadata> Svg Vector Icons : http://www.onlinewebfonts.com/icon </metadata>
<g><path d="M499.6,624L293,417.4c-4-4-9.6-6.5-15.7-6.5c-12.3,0-22.3,10-22.3,22.3c0,6.1,2.5,11.7,6.5,15.8l222.7,222.7c4,4,9.6,6.5,15.7,6.5c6.4,0,12-2.7,16.1-7l0.1,0.1L888,281.7c0,0,0.1,0.1,0.1,0.1l31.8-33.4c0,0,0-0.1-0.1-0.1l64-67l-0.1-0.1c3.8-4,6.2-9.4,6.2-15.3c0-12.3-10-22.3-22.3-22.3c-6.4,0-12,2.7-16.1,6.9l0-0.1l-57.2,60c0-0.1-0.1-0.1-0.1-0.2l-31.1,32.6c0,0.1,0.1,0.1,0.1,0.2L499.6,624z M950.6,312.2c-8.7-8.6-22.9-8.5-31.5,0.3c-6.1,6.2-7.6,15.1-5,22.9l-0.5,0.2c20.3,50.9,31.8,106.3,31.8,164.5c0,246-199.4,445.5-445.5,445.5C254,945.5,54.5,746,54.5,500C54.5,254,254,54.5,500,54.5c125.9,0,239.4,52.4,320.4,136.4l0.3-0.3c8.8,7.9,22.3,7.7,30.7-0.8c8.6-8.8,8.5-22.9-0.3-31.5c-0.8-0.8-1.9-1.2-2.8-1.8C759.6,66.3,636.6,10,500,10C229.4,10,10,229.4,10,500c0,270.6,219.4,490,490,490c270.6,0,490-219.4,490-490c0-63-12.3-123-34-178.3C955,318.2,953.4,314.9,950.6,312.2"/></g>
</svg>